<svg id="Layer_1" data-name="Layer 1" xmlns="http://www.w3.org/2000/svg" viewBox="0 0 98.57 120.28"><title>medicine-sign</title><path d="M52.42,7.46A4.2,4.2,0,0,0,49,.43,3.21,3.21,0,0,0,46,1.69,3.14,3.14,0,0,0,44.89,4.6c0,1.51.18,1.82,1.53,3.06S48,9,49.7,8.82a3.23,3.23,0,0,0,2.72-1.36ZM49.06,112.13c-.1-5.17-.28-7.94-.52-7.93s-.29,2.81-.16,8.14c.12,4.62.34,8,.52,7.94a56.31,56.31,0,0,0,.16-8.15ZM47.4,108c-.1-3.13-.58-3.75-1.48-1.92-.65,1.31-.4,3.68.56,5.45l.58,1.06.21-.89a21.15,21.15,0,0,0,.13-3.7Zm4.1,3.29c.49-1,.38-4.4-.15-4.91-.8-.78-.94-.41-1,2.6,0,2.19.06,3,.37,3s.59-.32.78-.7Zm2.86-1.74c2.2-3.72,1.28-6.53-3.28-10l-2.15-1.62a14.71,14.71,0,0,1-2.48-2.51c-.89-1.24-1-1.66-.9-3.5l.11-2.09-1.49-.9A6.05,6.05,0,0,0,42.11,88c-1.51,0-2.19,4.6-1.06,7.16s4.38,5.21,7.81,6.53c1.79.69,3.87,2.85,4.18,4.36a11.18,11.18,0,0,1-.33,4.77c-.22.79-.18.83.34.39a9.22,9.22,0,0,0,1.31-1.73Zm-10.2-.24c-.33-2.37,0-3.93,1.06-5.12s.88-1.91-.48-2.23c-.79-.18-1.11,0-1.79.82s-.81,1.32-.63,3.4a7.73,7.73,0,0,0,1,3.61,6,6,0,0,0,1,1.26,6.05,6.05,0,0,0-.11-1.74ZM54.5,97.8a7.73,7.73,0,0,0,2.65-6c-.06-3.4-2.21-6.25-6.71-8.91-2.6-1.53-5.11-3.66-5.78-4.9a5.73,5.73,0,0,1,.25-5.36c1-1.47,1-1.43-2.25-3.38C40.48,68,40.33,68,38.91,70.76a10.19,10.19,0,0,0-.39,8.51A9.76,9.76,0,0,0,41.59,84a18.73,18.73,0,0,0,4.46,3.26c4.41,2.12,6.57,4.88,5.35,6.83a5.54,5.54,0,0,0-.51,2.58c0,2.91,1.32,3.32,3.61,1.17Zm-5-2.21c0-2.92-.35-4.15-1.23-4.14-.47,0-.28,4.76.22,5.24.75.72,1,.45,1-1.1Zm-2.32-3.32c-.16-.59-.18-.59-.42,0a1.82,1.82,0,0,0,0,1.24c.27.58.29.58.42,0a3.45,3.45,0,0,0,0-1.24Zm9.07-8.67a9.49,9.49,0,0,0,4.09-7.87,6.94,6.94,0,0,0-1-4.78,12.65,12.65,0,0,0-2-2.91,66.33,66.33,0,0,0-7.81-5.1c-.69-.33-2.26-1.24-3.5-2-1.93-1.22-2.35-1.68-3-3.28-1.21-3-1-5.15.66-7.06,1-1.09.61-1.65-1.74-2.78l-2-1-1.22,1.43c-1.88,2.24-2.5,4.09-2.44,7.38a9.22,9.22,0,0,0,1.18,5.08,16.55,16.55,0,0,0,6.72,6.71c4.48,2.51,8.12,5,8.77,6a5.59,5.59,0,0,1,.72,2.42,7.35,7.35,0,0,1-1.84,4.52c-.92.79-.59,1.7,1,2.78,1.82,1.22,2.1,1.26,3.4.43Zm-6.41-5.28c0-4.79,0-4.89-1.17-5.47l-1.07-.52L47.66,76c.06,3.36.15,3.78.86,4.42.44.39.91.59,1,.43a7.94,7.94,0,0,0,.26-2.57Zm2.24-1.17c0-1.93-.69-1.69-.77.26-.06,1.37,0,1.67.33,1.34a2.91,2.91,0,0,0,.44-1.6Zm-5.41-2c-.53-.5-.9,1-.55,2.14.27.92.29.91.6-.42.21-.91.19-1.48-.05-1.72Zm11-11.65a10.54,10.54,0,0,0,4.24-9.12,7.77,7.77,0,0,0-.74-3.68C60.49,49.35,57.41,46,56.91,46a18.79,18.79,0,0,1-2.55-1.34A35.59,35.59,0,0,0,47.85,42c-4.77-1.42-7.94-3.08-9.55-5A5,5,0,0,1,37,33.59c-.21-2.23.06-2.59,1.1-1.48,1.45,1.55,5,1,6.49-.94.79-1,.7-1.78-.25-2.16a8.53,8.53,0,0,0-8,1,6.57,6.57,0,0,0-2,8.82c1.64,3,3.91,4.68,11.63,8.33,6.5,3.07,7.67,3.79,8.69,5.38,1.41,2.18.62,5.62-1.82,7.93-1.36,1.28-1.48,1.83-.57,2.61a8.52,8.52,0,0,0,3.26,1.61,6.89,6.89,0,0,0,2.14-1.26ZM50.3,57c.17-4.62.16-4.67-.68-5.29-1.09-.81-2.09-1.11-2.41-.73a26,26,0,0,0,0,5c.29,4.55.32,4.71,1.19,5.16,1.64.86,1.68.76,1.86-4.15Zm2.86,1.67a3.54,3.54,0,0,0,.12-4.07c-.41-.63-.9-1.05-1.09-.93-.45.29-.35,5.84.11,5.84.19,0,.57-.38.86-.84ZM46.22,55.9c-.06-2.71-.17-3.36-.59-3.35-.6,0-1.05.8-1.36,2.4a4.29,4.29,0,0,0,.52,2.73c1.14,2.46,1.5,2,1.43-1.78ZM58.14,44.12c3.33-1.81,6.13-6,6.35-9.46.12-2,0-2.22-1-3.52a7.34,7.34,0,0,0-6.22-3c-2.35,0-4.2.75-4.37,1.7a3.07,3.07,0,0,0,1,1.72c.92,1,1.33,1.15,3.16,1.25s2.23,0,3.19-.83a5.48,5.48,0,0,1,1.3-.95c.3,0-.11,2.85-.53,3.73a14.23,14.23,0,0,1-7.32,6.32c-1.8.62-1.57,1.29.86,2.51,2.19,1.1,2.56,1.16,3.66.56ZM50.59,41c.12-1.3.2-3.77.41-12.14.13-5.07.29-9.4.36-9.64s.12-2.3.12-4.6l0-4.18L49,10.28a14.83,14.83,0,0,0-2.54-.09c-.06.06-.05,6.82,0,15,.1,11.69.22,15,.57,15.17a11.47,11.47,0,0,0,3,1.07.46.46,0,0,0,.49-.4Zm3.92-1.38c1.6-.77,4.09-3,4.08-3.61a.49.49,0,0,0-.54-.38c-.29,0-.5-.17-.45-.4s-.48-.54-1.15-.71a7.71,7.71,0,0,1-2.51-1.39l-1.27-1.08-.07,2.24a9.21,9.21,0,0,0,.12,2.41,4.4,4.4,0,0,0,1.78-.41c2.18-.79,2-.24-.23.86-1.79.86-2.29,1.59-1.85,2.68.26.65.33.64,2.09-.21ZM45.81,39c-.26-.64-4.58-3-5.43-3-.62,0-.57.13.36,1.07,2.21,2.22,5.73,3.57,5.07,2Zm-.24-2.33c.24-1.07.26-4.34,0-4.33a5.7,5.7,0,0,0-1.33.87,12.18,12.18,0,0,1-2.32,1.39l-1.2.51,2.12,1c2.61,1.28,2.53,1.27,2.71.51ZM66.82,29a23.39,23.39,0,0,0,2.06-2.52c.56-.9.55-.94-1.18-2.73a22.16,22.16,0,0,0-2-1.94,5.67,5.67,0,0,0-1.85,1.33c-2.34,2.14-3.8,2.76-6.67,2.83a25.33,25.33,0,0,1-3.36-.09c-.81-.15-.89-.06-.87,1.07,0,1.37,0,1.36,2.81.63A8.82,8.82,0,0,1,63,29.42a5.14,5.14,0,0,0,1.85,1.15,5.86,5.86,0,0,0,2-1.61Zm-31.41.63a8.59,8.59,0,0,1,2.23-1.33,6.78,6.78,0,0,1,4-.66,11.3,11.3,0,0,1,2.9.51c.83.43,1.11.15,1.09-1.08l0-1-2.92.07a9.64,9.64,0,0,1-4.57-.65,13.7,13.7,0,0,1-4.86-4.41c-.38-.62-.52-.54-2,1.12a8.06,8.06,0,0,0-1.6,2.26c0,1,1.53,3.22,3,4.41,1.65,1.36,2.15,1.49,2.76.73Zm39.4-4.72c.84-.35.67-.73-.69-1.54a13,13,0,0,1-2.92-3.16c-1.5-2.16-1.81-2.42-2.83-2.4-2.48,0-2.57,1.54-.24,3.94a9.25,9.25,0,0,0,4.94,3.07c.58.13,1.09.26,1.12.28a2.27,2.27,0,0,0,.62-.19Zm-30.39-.82c.95-.21,1.16-1.08,1.1-4.69l-.06-2.92-2.11.27L41.23,17,39.61,15.4c-2-1.94-2.14-3-.49-4.4a6.09,6.09,0,0,0,2.25-5A3.71,3.71,0,0,0,40,2.76C38.19.84,35.87,0,32.55.19c-2.17.09-2.92.32-5.46,1.64-1.62.85-3.83,2.16-4.91,2.91L17.29,8.15A89.87,89.87,0,0,1,1.4,17.42L0,18.08l1,.5a9.2,9.2,0,0,0,7,0C12.18,17,23.16,9.79,24.17,8c.83-1.46,1.28-1.1,1.32,1.06a8.12,8.12,0,0,0,8.2,7.59c.64,0,1.16.14,1.16.34a.37.37,0,0,1-.39.36c-.64,0-.08,2.66.83,3.88a9,9,0,0,0,5.13,3.07,8.51,8.51,0,0,0,4-.25Zm38.72-.54c0-.19-.45-.6-1-.91a29.16,29.16,0,0,1-5.68-4.07c-3-2.85-2.84-2.79-4.06-2-.59.37-1.07.93-1.06,1.24,0,.91,4.12,4.45,6.2,5.35,1.92.83,5.61,1.12,5.6.43Zm-55.93,0a17.88,17.88,0,0,0,2.9-2.19c2.68-2.5,2.77-3.31.41-3.7-1.29-.22-1.4-.16-3.67,2.28A33.43,33.43,0,0,1,23.55,23c-1.11.75-1.21,1.16-.33,1.38a6.73,6.73,0,0,0,4-.92Zm32,.08a7.87,7.87,0,0,0,4.9-4.48c.46-1.29.48-1.7.12-2.13s-.4-.53-.33-.54l2.84-.14C69.17,16.17,69.64,16,71,15a7.32,7.32,0,0,0,2.94-7.26c-.3-1.21.88-.44,1.44.94s3.45,3.93,9.33,8c4.77,3.28,10.53,4.56,13,2.89,1.31-.9,1.19-1.46-.42-1.91-3.47-1-10.15-4.87-17.54-10.24C70.2.47,66.91-.8,61.54.4c-1.12.25-3.26,2.3-3.79,3.65a6.91,6.91,0,0,0,1.88,7.46L61,12.85,60.2,14a5.19,5.19,0,0,1-6.32,2.46l-1-.28L53,19.78,53,23.35l1.16.31a9.41,9.41,0,0,0,5-.09Zm29.7-1.1c.6-.24.76-1.21.2-1.2s-7.82-4.82-10.38-7c-2.74-2.36-3.4-2.67-3.75-1.7-.52,1.43-.14,2.35,1.72,4.14,4.33,4.16,9.82,6.76,12.21,5.79Zm-67.78-.08a40.57,40.57,0,0,0,4.29-2.94l2.71-2.11L27,16.19A5.13,5.13,0,0,0,25.54,15a11.77,11.77,0,0,0-2.11,1.72,35.25,35.25,0,0,1-6.81,5.14c-1.79,1-1.88,1.4-.33,1.56a7.71,7.71,0,0,0,4.86-1.07ZM15.27,20.6c1.88-1,9.62-6.06,9.61-6.36a11.42,11.42,0,0,0-1.47-3.41c-.15,0-2.29,1.58-4.77,3.51-3.9,3.05-8.73,6-9.91,6-.84,0-.29.71.8,1a7.25,7.25,0,0,0,5.74-.72Z"/></svg>